<?xml version="1.0" encoding="utf-8"?>
<!-- Generator: Adobe Illustrator 19.2.1, SVG Export Plug-In . SVG Version: 6.00 Build 0)  -->
<svg version="1.1" id="Layer_1" xmlns="http://www.w3.org/2000/svg" xmlns:xlink="http://www.w3.org/1999/xlink" x="0px" y="0px"
	 viewBox="0 0 122.5 34.5" style="enable-background:new 0 0 122.5 34.5;" xml:space="preserve">
<style type="text/css">
	.st0{fill:#FFFFFF;}
	.st1{clip-path:url(#SVGID_4_);}
</style>
<g>
	<g>
		<g>
			<title>Group 3</title>
			<desc>Created with Sketch.</desc>
			<g>
				<g>
					<g>
						<path id="SVGID_1_" class="st0" d="M8.7,24c-1.1,0-2.1-0.9-2.1-2s0.9-2,2.1-2s2.1,0.9,2.1,2S9.8,24,8.7,24L8.7,24z M34.5,13.1
							c-0.2-1.6-1.2-2.9-2.5-3.9l-0.5-0.4l-0.4,0.5c-0.8,0.9-1.1,2.5-1,3.7c0.1,0.9,0.4,1.8,0.9,2.5c-0.4,0.2-0.9,0.4-1.3,0.6
							c-0.9,0.3-1.8,0.4-2.7,0.4H1.1L1,17.1C0.8,19,1.1,21,1.9,22.8l0.4,0.7v0.1c2.4,4,6.7,5.8,11.4,5.8c9,0,16.4-3.9,19.9-12.3
							c2.3,0.1,4.6-0.5,5.7-2.7l0.3-0.5l-0.5-0.3C37.8,12.8,36,12.7,34.5,13.1L34.5,13.1z M21.6,11.5h-3.9v3.9h3.9V11.5z M21.6,6.6
							h-3.9v3.9h3.9V6.6z M21.6,1.6h-3.9v3.9h3.9V1.6z M26.4,11.5h-3.9v3.9h3.9V11.5z M11.9,11.5H8v3.9h3.9V11.5z M16.8,11.5h-3.9
							v3.9h3.9V11.5z M7.1,11.5H3.2v3.9h3.9L7.1,11.5L7.1,11.5z M16.8,6.6h-3.9v3.9h3.9V6.6z M11.9,6.6H8v3.9h3.9V6.6z"/>
					</g>
					<g>
						<g>
							<defs>
								<path id="SVGID_2_" d="M8.7,24c-1.1,0-2.1-0.9-2.1-2s0.9-2,2.1-2s2.1,0.9,2.1,2S9.8,24,8.7,24L8.7,24z M34.5,13.1
									c-0.2-1.6-1.2-2.9-2.5-3.9l-0.5-0.4l-0.4,0.5c-0.8,0.9-1.1,2.5-1,3.7c0.1,0.9,0.4,1.8,0.9,2.5c-0.4,0.2-0.9,0.4-1.3,0.6
									c-0.9,0.3-1.8,0.4-2.7,0.4H1.1L1,17.1C0.8,19,1.1,21,1.9,22.8l0.4,0.7v0.1c2.4,4,6.7,5.8,11.4,5.8c9,0,16.4-3.9,19.9-12.3
									c2.3,0.1,4.6-0.5,5.7-2.7l0.3-0.5l-0.5-0.3C37.8,12.8,36,12.7,34.5,13.1L34.5,13.1z M21.6,11.5h-3.9v3.9h3.9V11.5z
									 M21.6,6.6h-3.9v3.9h3.9V6.6z M21.6,1.6h-3.9v3.9h3.9V1.6z M26.4,11.5h-3.9v3.9h3.9V11.5z M11.9,11.5H8v3.9h3.9V11.5z
									 M16.8,11.5h-3.9v3.9h3.9V11.5z M7.1,11.5H3.2v3.9h3.9L7.1,11.5L7.1,11.5z M16.8,6.6h-3.9v3.9h3.9V6.6z M11.9,6.6H8v3.9h3.9
									V6.6z"/>
							</defs>
							<clipPath id="SVGID_4_">
								<use xlink:href="#SVGID_2_"  style="overflow:visible;"/>
							</clipPath>
							<g class="st1">
								<g>
									<g>
										<rect id="SVGID_3_" x="-48.8" y="-21" class="st0" width="1274.8" height="151.4"/>
									</g>
								</g>
							</g>
						</g>
					</g>
				</g>
			</g>
		</g>
	</g>
</g>
<path id="docker_2_" class="st0" d="M101.9,21.6c1.7-1.5,3.4-2.9,5.1-4.4c0.6-0.5,1.2-1,1.8-1.6c-0.5-0.6-1.2-1-1.9-1.3
	c-1.3-0.5-2.6-0.3-3.9,0.4c-1.6,0.9-2.3,2.4-2.2,4.2c0,0.7,0.2,1.4,0.6,2C101.7,21.2,101.8,21.4,101.9,21.6 M103.9,23
	c0.8,0.3,1.8,0.3,2.7,0.1c0.4-0.2,1.6-0.7,2-0.6h0.1h0.1c0.3,0.1,0.5,0.3,0.6,0.6c0.3,0.6,0.2,1.2-0.4,1.5l-0.2,0.1
	c-2.2,1.3-4.5,1.1-6.7-0.1c-1-0.6-1.8-1.4-2.4-2.4L99.6,22c-1.4-2.4-1.2-5,0.4-7.3c0.5-0.8,1.3-1.4,2.1-1.9l0.3-0.2
	c2.1-1.2,4.3-1.1,6.4-0.1c1.1,0.6,2.1,1.4,2.7,2.5l0.1,0.2c0.5,0.8-0.1,1.5-0.8,2c-0.7,0.6-1.4,1.2-2.1,1.8
	C106.9,20.4,105.4,21.7,103.9,23z M120.2,12h0.2c0.7,0,1.2,0.5,1.2,1.2c0,1-0.9,1.2-1.7,1.2c-1,0-2,0.6-2.7,1.3
	c-0.9,0.9-1.3,2-1.3,3.2v5.6c0,0.6-0.4,1.2-1.1,1.2h-0.2c-0.7,0-1.1-0.5-1.1-1.2v-5.9c0-2.3,1.1-4.1,2.9-5.4
	C117.7,12.4,118.9,12,120.2,12z M91.6,15.9c0.9-0.9,1.8-1.8,2.7-2.7c0.3-0.2,1.2-1.3,1.6-1.3h0.4l0,0c0.5,0.1,0.9,0.4,0.9,1v0.2
	c0,0.4-0.5,0.8-0.7,1.1c-0.5,0.6-1.1,1.1-1.6,1.7l-2.8,2.8c1.2,1.2,2.4,2.4,3.6,3.6c0.3,0.3,0.7,0.7,1,1c0.1,0.1,0.3,0.3,0.4,0.4
	c0.1,0.2,0.2,0.3,0.2,0.5v0.2v0.1c-0.1,0.5-0.5,0.9-1,0.9h-0.2c-0.4,0-0.8-0.4-1.1-0.7c-0.5-0.5-1.1-1-1.6-1.6l-1.8-1.7v2.8
	c0,0.6-0.4,1.2-1.1,1.2h-0.2c-0.7,0-1.1-0.5-1.1-1.2V8.8c0-0.6,0.4-1.1,1.1-1.1h0.2c0.7,0,1.1,0.5,1.1,1.1V15.9z M84.2,14.4
	c-0.3-0.2-1-0.2-1.4-0.2c-1.9-0.1-3.3,1-4.1,2.7c-0.3,0.6-0.4,1.2-0.4,1.9c0,2,1,3.4,2.8,4.2c0.6,0.3,1.5,0.4,2.2,0.4
	c0.6,0,1.5-0.4,2-0.6h0.1h0.4l0,0c0.5,0.1,0.9,0.4,0.9,1V24c0,1.4-2.6,1.7-3.5,1.8c-3.4,0.2-6-1.7-7-4.9C76,20.3,76,19.8,76,19.2
	v-0.5c0-2.5,1.2-4.5,3.4-5.7c1-0.6,2.1-0.9,3.3-0.9h0.5c1.2,0,2.4,0.3,3.4,1l0.1,0.1l0.1,0.1c0.1,0.2,0.2,0.4,0.2,0.6v0.2
	c0,0.6-0.4,0.9-1,1l0,0h-0.1C85.2,14.9,84.4,14.5,84.2,14.4z M63.2,18.7c0,1.7,0.9,3,2.3,3.9c0.7,0.4,1.5,0.6,2.3,0.6
	c1.7,0,3-0.9,3.9-2.3c0.4-0.7,0.6-1.5,0.6-2.3c0-1.6-0.8-2.9-2.1-3.8c-0.7-0.5-1.6-0.7-2.4-0.7c-1.9,0-3.3,1-4.1,2.7
	C63.2,17.5,63.2,18.1,63.2,18.7z M67.4,11.9h0.3c2.7,0,4.7,1.3,6,3.6c0.5,0.9,0.8,1.9,0.8,3V19c0,2.5-1.2,4.5-3.4,5.7
	c-1,0.6-2.1,0.9-3.3,0.9h-0.5c-2.5,0-4.5-1.2-5.7-3.4c-0.6-1-0.9-2.1-0.9-3.3v-0.5c0-2.5,1.2-4.5,3.4-5.7
	C65.2,12.2,66.2,11.9,67.4,11.9z M48,18.7c0,1.8,0.9,3.2,2.5,4c0.6,0.3,1.3,0.5,2.1,0.5c1.8,0,3.1-0.8,4-2.3
	c0.4-0.7,0.6-1.5,0.6-2.3c0-1.6-0.7-2.8-2-3.7c-0.8-0.5-1.6-0.8-2.6-0.8c-1.9,0-3.3,1-4.1,2.7C48.2,17.5,48,18.1,48,18.7z
	 M57.2,13.6V8.7c0-0.6,0.4-1.2,1.1-1.2h0.2c0.7,0,1.1,0.5,1.1,1.2V19c0,2.5-1.2,4.5-3.4,5.7c-1,0.6-2.1,0.9-3.3,0.9h-0.5
	c-2.5,0-4.5-1.2-5.7-3.4c-0.6-1-0.9-2.1-0.9-3.3v-0.5c0-2.5,1.2-4.5,3.4-5.7c1-0.6,2.1-0.9,3.3-0.9H53C54.5,11.9,56,12.5,57.2,13.6z
	"/>
</svg>
