<?xml version="1.0" encoding="UTF-8" standalone="no"?>
<!-- Created with Inkscape (http://www.inkscape.org/) -->

<svg
   xmlns:dc="http://purl.org/dc/elements/1.1/"
   xmlns:cc="http://creativecommons.org/ns#"
   xmlns:rdf="http://www.w3.org/1999/02/22-rdf-syntax-ns#"
   xmlns:svg="http://www.w3.org/2000/svg"
   xmlns="http://www.w3.org/2000/svg"
   xmlns:sodipodi="http://sodipodi.sourceforge.net/DTD/sodipodi-0.dtd"
   xmlns:inkscape="http://www.inkscape.org/namespaces/inkscape"
   id="svg4142"
   height="10mm"
   viewBox="0 0 201.96851 35.433071"
   width="57mm"
   version="1.1"
   inkscape:version="0.91 r13725"
   sodipodi:docname="docker-deploy.svg">
  <defs
     id="defs3430" />
  <sodipodi:namedview
     pagecolor="#ffffff"
     bordercolor="#666666"
     borderopacity="1"
     objecttolerance="10"
     gridtolerance="10"
     guidetolerance="10"
     inkscape:pageopacity="0"
     inkscape:pageshadow="2"
     inkscape:window-width="1920"
     inkscape:window-height="1045"
     id="namedview3428"
     showgrid="false"
     inkscape:zoom="2.0000001"
     inkscape:cx="86.779118"
     inkscape:cy="10.42086"
     inkscape:window-x="0"
     inkscape:window-y="0"
     inkscape:window-maximized="1"
     inkscape:current-layer="layer1"
     showguides="false" />
  <metadata
     id="metadata4147">
    <rdf:RDF>
      <cc:Work
         rdf:about="">
        <dc:format>image/svg+xml</dc:format>
        <dc:type
           rdf:resource="http://purl.org/dc/dcmitype/StillImage" />
        <dc:title />
        <dc:publisher>
          <cc:Agent>
            <dc:title>Julien Reichardt</dc:title>
          </cc:Agent>
        </dc:publisher>
        <cc:license
           rdf:resource="http://creativecommons.org/licenses/by/3.0/" />
      </cc:Work>
      <cc:License
         rdf:about="http://creativecommons.org/licenses/by/3.0/">
        <cc:permits
           rdf:resource="http://creativecommons.org/ns#Reproduction" />
        <cc:permits
           rdf:resource="http://creativecommons.org/ns#Distribution" />
        <cc:requires
           rdf:resource="http://creativecommons.org/ns#Notice" />
        <cc:requires
           rdf:resource="http://creativecommons.org/ns#Attribution" />
        <cc:permits
           rdf:resource="http://creativecommons.org/ns#DerivativeWorks" />
      </cc:License>
    </rdf:RDF>
  </metadata>
  <g
     id="layer1"
     transform="translate(0 -1016.9)">
    <g
       id="g5"
       transform="matrix(0.99672448,0,0,1,-14.810101,0)">
      <g
         id="g7">
        <rect
           id="rect4731"
           rx="4.0948124"
           ry="4.0813999"
           height="26.976912"
           width="171.68477"
           y="1021.3536"
           x="42.111732"
           style="fill:#1a7bb6;stroke:#1a7bb6;stroke-width:4.92967033" />
        <path
           id="path6283"
           d="m 64.569,1021.9 a 6.489,6.5236 0 0 1 5.6396,3.2434 6.489,6.5236 0 0 1 0.01629,6.5318 6.489,6.5236 0 0 1 -5.6233,3.2718"
           inkscape:connector-curvature="0"
           style="fill:#1a6a9e;stroke:#1a6a9e;stroke-width:5.96540022" />
        <rect
           id="rect6307"
           height="13.707"
           width="15.775"
           y="1018.9"
           x="48.925999"
           style="fill:#1a6a9e;stroke-opacity:0" />
      </g>
      <rect
         id="rect6319"
         height="14.37"
         width="9.8237"
         stroke-miterlimit="0"
         y="1018.9"
         x="39.462601"
         style="fill:#1a5c86;stroke-miterlimit:0;stroke-opacity:0" />
      <path
         id="path4076"
         d="m 49.039,1022.1 a 12.771,12.775 0 0 1 11.07,6.4049 12.771,12.775 0 0 1 -0.03042,12.792 12.771,12.775 0 0 1 -11.101,6.3522"
         inkscape:connector-curvature="0"
         style="fill:#1a5c86;stroke:#1a5c86;stroke-width:6.34019995" />
      <path
         id="rect4799"
         d="m 58.532,1046.6 -19.076,0 0,-27.786"
         inkscape:connector-curvature="0"
         style="fill:#1a5276;stroke-opacity:0" />
      <rect
         id="rect6319-6"
         height="6.3362999"
         width="9.8190002"
         stroke-miterlimit="0"
         y="1044.5"
         x="39.462601"
         style="opacity:0.98000004;fill:#1a5276;stroke-miterlimit:0;stroke-opacity:0" />
    </g>
    <path
       id="path4076-4"
       d="m 42.11866,1044.8 a 12.771,12.775 0 0 1 -8.0128,2.8271"
       inkscape:connector-curvature="0"
       style="fill-opacity:0;stroke:#1a5276;stroke-width:6.34019995" />
    <text
       id="text4175"
       style="word-spacing:0px;letter-spacing:0px"
       xml:space="preserve"
       font-size="180px"
       line-height="125%"
       y="543.79077"
       x="1011.4286"
       font-family="'DejaVu Sans'"
       fill="#ffffff"><tspan
         id="tspan4177"
         y="543.79077"
         x="1011.4286" /></text>
    <g
       id="g19"
       style="font-family:sans-serif"
       transform="translate(-56.960001,1.3933983)">
      <text
         id="text4179"
         style="font-size:9.51020241px;line-height:125%;letter-spacing:0px;word-spacing:0px;fill:#ffffff;fill-opacity:0.95685999"
         xml:space="preserve"
         transform="scale(1.0006102,0.99939018)"
         line-height="125%"
         font-size="9.5103px"
         y="1040.3125"
         x="124.91784"
         sodipodi:linespacing="125%"><tspan
           id="tspan4181"
           font-size="14.4px"
           y="1040.3125"
           x="124.91784"
           font-weight="bold"
           style="font-weight:bold;font-size:14.39985275px;font-family:'Nimbus Sans L';fill:#ffffff;fill-opacity:0.95685999">DPlatform</tspan></text>
      <flowRoot
         id="flowRoot4235"
         font-size="180px"
         xml:space="preserve"
         style="font-size:180px;line-height:125%;letter-spacing:0px;word-spacing:0px;fill:#000000"
         line-height="125%"><flowRegion
           id="flowRegion4237"><rect
             id="rect4239"
             y="1749.5"
             width="537.14001"
             height="3348.6001"
             x="3085.7" /></flowRegion><flowPara
           id="flowPara4241" /></flowRoot>      <text
         id="text4245"
         style="font-size:180px;line-height:125%;letter-spacing:0px;word-spacing:0px;fill:#000000"
         xml:space="preserve"
         font-size="180px"
         line-height="125%"
         y="1706.941"
         x="4266.8843"
         sodipodi:linespacing="125%"><tspan
           id="tspan4247"
           y="1706.941"
           x="4266.8843" /></text>
    </g>
    <rect
       style="fill:#1a5276;fill-opacity:1;fill-rule:nonzero;image-rendering:auto"
       id="rect3689"
       width="23.507957"
       height="31.946718"
       x="1.0838013"
       y="1018.8943"
       rx="0"
       ry="0" />
    <path
       d="m 12.706466,1043.4205 c -1.1,0 -2.1,-0.9 -2.1,-2 0,-1.1 0.9,-2 2.1,-2 1.2,0 2.1,0.9 2.1,2 0,1.1 -1,2 -2.1,2 l 0,0 z m 25.8,-10.9 c -0.2,-1.6 -1.2,-2.9 -2.5,-3.9 l -0.5,-0.4 -0.4,0.5 c -0.8,0.9 -1.1,2.5 -1,3.7 0.1,0.9 0.4,1.8 0.9,2.5 -0.4,0.2 -0.9,0.4 -1.3,0.6 -0.9,0.3 -1.8,0.4 -2.7,0.4 l -25.9,0 -0.1,0.6 c -0.2,1.9 0.1,3.9 0.9,5.7 l 0.4,0.7 0,0.1 c 2.4,4 6.7,5.8 11.4,5.8 9,0 16.4,-3.9 19.9,-12.3 2.3,0.1 4.6,-0.5 5.7,-2.7 l 0.3,-0.5 -0.5,-0.3 c -1.3,-0.8 -3.1,-0.9 -4.6,-0.5 l 0,0 z m -12.9,-1.6 -3.9,0 0,3.9 3.9,0 0,-3.9 z m 0,-4.9 -3.9,0 0,3.9 3.9,0 0,-3.9 z m 0,-5 -3.9,0 0,3.9 3.9,0 0,-3.9 z m 4.8,9.9 -3.9,0 0,3.9 3.9,0 0,-3.9 z m -14.5,0 -3.9,0 0,3.9 3.9,0 0,-3.9 z m 4.9,0 -3.9,0 0,3.9 3.9,0 0,-3.9 z m -9.7,0 -3.9,0 0,3.9 3.9,0 0,-3.9 0,0 z m 9.7,-4.9 -3.9,0 0,3.9 3.9,0 0,-3.9 z m -4.9,0 -3.9,0 0,3.9 3.9,0 0,-3.9 z"
       class="st0"
       id="SVGID_1_"
       inkscape:connector-curvature="0"
       style="fill:#ffffff" />
    <path
       d="m 177.19739,1039.0007 c 1.02,-0.9 2.04,-1.74 3.06,-2.64 0.36,-0.3 0.72,-0.6 1.08,-0.96 -0.3,-0.36 -0.72,-0.6 -1.14,-0.78 -0.78,-0.3 -1.56,-0.18 -2.34,0.24 -0.96,0.54 -1.38,1.44 -1.32,2.52 0,0.42 0.12,0.84 0.36,1.2 0.18,0.18 0.24,0.3 0.3,0.42 m 1.2,0.84 c 0.48,0.18 1.08,0.18 1.62,0.06 0.24,-0.12 0.96,-0.42 1.2,-0.36 l 0.06,0 0.06,0 c 0.18,0.06 0.3,0.18 0.36,0.36 0.18,0.36 0.12,0.72 -0.24,0.9 l -0.12,0.06 c -1.32,0.78 -2.7,0.66 -4.02,-0.06 -0.6,-0.36 -1.08,-0.84 -1.44,-1.44 l -0.06,-0.12 c -0.84,-1.44 -0.72,-3 0.24,-4.38 0.3,-0.48 0.78,-0.84 1.26,-1.14 l 0.18,-0.12 c 1.26,-0.72 2.58,-0.66 3.84,-0.06 0.66,0.36 1.26,0.84 1.62,1.5 l 0.06,0.12 c 0.3,0.48 -0.06,0.9 -0.48,1.2 -0.42,0.36 -0.84,0.72 -1.26,1.08 -1.08,0.84 -1.98,1.62 -2.88,2.4 z m 9.78,-6.6 0.12,0 c 0.42,0 0.72,0.3 0.72,0.72 0,0.6 -0.54,0.72 -1.02,0.72 -0.6,0 -1.2,0.36 -1.62,0.78 -0.54,0.54 -0.78,1.2 -0.78,1.92 l 0,3.36 c 0,0.36 -0.24,0.72 -0.66,0.72 l -0.12,0 c -0.42,0 -0.66,-0.3 -0.66,-0.72 l 0,-3.54 c 0,-1.38 0.66,-2.46 1.74,-3.24 0.78,-0.48 1.5,-0.72 2.28,-0.72 z m -17.16,2.34 c 0.54,-0.54 1.08,-1.08 1.62,-1.62 0.18,-0.12 0.72,-0.78 0.96,-0.78 l 0.24,0 0,0 c 0.3,0.06 0.54,0.24 0.54,0.6 l 0,0.12 c 0,0.24 -0.3,0.48 -0.42,0.66 -0.3,0.36 -0.66,0.66 -0.96,1.02 l -1.68,1.68 c 0.72,0.72 1.44,1.44 2.16,2.16 0.18,0.18 0.42,0.42 0.6,0.6 0.06,0.06 0.18,0.18 0.24,0.24 0.06,0.12 0.12,0.18 0.12,0.3 l 0,0.12 0,0.06 c -0.06,0.3 -0.3,0.54 -0.6,0.54 l -0.12,0 c -0.24,0 -0.48,-0.24 -0.66,-0.42 -0.3,-0.3 -0.66,-0.6 -0.96,-0.96 l -1.08,-1.02 0,1.68 c 0,0.36 -0.24,0.72 -0.66,0.72 l -0.12,0 c -0.42,0 -0.66,-0.3 -0.66,-0.72 l 0,-9.24 c 0,-0.36 0.24,-0.66 0.66,-0.66 l 0.12,0 c 0.42,0 0.66,0.3 0.66,0.66 l 0,4.26 z m -4.44,-0.9 c -0.18,-0.12 -0.6,-0.12 -0.84,-0.12 -1.14,-0.06 -1.98,0.6 -2.46,1.62 -0.18,0.36 -0.24,0.72 -0.24,1.14 0,1.2 0.6,2.04 1.68,2.52 0.36,0.18 0.9,0.24 1.32,0.24 0.36,0 0.9,-0.24 1.2,-0.36 l 0.06,0 0.24,0 0,0 c 0.3,0.06 0.54,0.24 0.54,0.6 l 0,0.12 c 0,0.84 -1.56,1.02 -2.1,1.08 -2.04,0.12 -3.6,-1.02 -4.2,-2.94 -0.12,-0.36 -0.12,-0.66 -0.12,-1.02 l 0,-0.3 c 0,-1.5 0.72,-2.7 2.04,-3.42 0.6,-0.36 1.26,-0.54 1.98,-0.54 l 0.3,0 c 0.72,0 1.44,0.18 2.04,0.6 l 0.06,0.06 0.06,0.06 c 0.06,0.12 0.12,0.24 0.12,0.36 l 0,0.12 c 0,0.36 -0.24,0.54 -0.6,0.6 l 0,0 -0.06,0 c -0.42,-0.12 -0.9,-0.36 -1.02,-0.42 z m -12.6,2.58 c 0,1.02 0.54,1.8 1.38,2.34 0.42,0.24 0.9,0.36 1.38,0.36 1.02,0 1.8,-0.54 2.34,-1.38 0.24,-0.42 0.36,-0.9 0.36,-1.38 0,-0.96 -0.48,-1.74 -1.26,-2.28 -0.42,-0.3 -0.96,-0.42 -1.44,-0.42 -1.14,0 -1.98,0.6 -2.46,1.62 -0.3,0.42 -0.3,0.78 -0.3,1.14 z m 2.52,-4.08 0.18,0 c 1.62,0 2.82,0.78 3.6,2.16 0.3,0.54 0.48,1.14 0.48,1.8 l 0,0.3 c 0,1.5 -0.72,2.7 -2.04,3.42 -0.6,0.36 -1.26,0.54 -1.98,0.54 l -0.3,0 c -1.5,0 -2.7,-0.72 -3.42,-2.04 -0.36,-0.6 -0.54,-1.26 -0.54,-1.98 l 0,-0.3 c 0,-1.5 0.72,-2.7 2.04,-3.42 0.66,-0.3 1.26,-0.48 1.98,-0.48 z m -11.64,4.08 c 0,1.08 0.54,1.92 1.5,2.4 0.36,0.18 0.78,0.3 1.26,0.3 1.08,0 1.86,-0.48 2.4,-1.38 0.24,-0.42 0.36,-0.9 0.36,-1.38 0,-0.96 -0.42,-1.68 -1.2,-2.22 -0.48,-0.3 -0.96,-0.48 -1.56,-0.48 -1.14,0 -1.98,0.6 -2.46,1.62 -0.18,0.42 -0.3,0.78 -0.3,1.14 z m 5.52,-3.06 0,-2.94 c 0,-0.36 0.24,-0.72 0.66,-0.72 l 0.12,0 c 0.42,0 0.66,0.3 0.66,0.72 l 0,6.18 c 0,1.5 -0.72,2.7 -2.04,3.42 -0.6,0.36 -1.26,0.54 -1.98,0.54 l -0.3,0 c -1.5,0 -2.7,-0.72 -3.42,-2.04 -0.36,-0.6 -0.54,-1.26 -0.54,-1.98 l 0,-0.3 c 0,-1.5 0.72,-2.7 2.04,-3.42 0.6,-0.36 1.26,-0.54 1.98,-0.54 l 0.3,0 c 0.9,0.06 1.8,0.42 2.52,1.08 z"
       class="st0"
       id="docker_2_"
       inkscape:connector-curvature="0"
       style="fill:#ffffff" />
  </g>
</svg>
