<?xml version="1.0" encoding="UTF-8" standalone="no"?>
<!-- Created with Inkscape (http://www.inkscape.org/) -->
<svg id="svg5859" xmlns:rdf="http://www.w3.org/1999/02/22-rdf-syntax-ns#" xmlns="http://www.w3.org/2000/svg" height="70mm" width="75mm" version="1.1" xmlns:cc="http://creativecommons.org/ns#" xmlns:dc="http://purl.org/dc/elements/1.1/" viewBox="0 0 265.74803 248.03149">
 <metadata id="metadata5864">
  <rdf:RDF>
   <cc:Work rdf:about="">
    <dc:format>image/svg+xml</dc:format>
    <dc:type rdf:resource="http://purl.org/dc/dcmitype/StillImage"/>
    <dc:title/>
    <dc:publisher>
     <cc:Agent>
      <dc:title>Julien Reichardt</dc:title>
     </cc:Agent>
    </dc:publisher>
    <cc:license rdf:resource="http://creativecommons.org/licenses/by/3.0/"/>
    <dc:rights>
     <cc:Agent>
      <dc:title/>
     </cc:Agent>
    </dc:rights>
   </cc:Work>
   <cc:License rdf:about="http://creativecommons.org/licenses/by/3.0/">
    <cc:permits rdf:resource="http://creativecommons.org/ns#Reproduction"/>
    <cc:permits rdf:resource="http://creativecommons.org/ns#Distribution"/>
    <cc:requires rdf:resource="http://creativecommons.org/ns#Notice"/>
    <cc:requires rdf:resource="http://creativecommons.org/ns#Attribution"/>
    <cc:permits rdf:resource="http://creativecommons.org/ns#DerivativeWorks"/>
   </cc:License>
  </rdf:RDF>
 </metadata>
 <g id="layer1" transform="translate(0 -804.33)">
  <path id="path6283" fill-opacity="0" stroke="#f88b28" stroke-width="44.153" d="m190.39 831.75a47.998 48.314 0 0 1 41.715 24.021 47.998 48.314 0 0 1 0.12051 48.375 47.998 48.314 0 0 1 -41.595 24.231"/>
  <g>
   <rect id="rect6307" stroke-opacity="0" height="44.251" width="116.68" y="809.66" x="74.684" fill="#f88a28"/>
   <rect id="rect6307-0-6" stroke-opacity="0" height="145.95" width="46.927" y="855.01" x="4.6836" fill="#f8e228"/>
   <rect id="rect6319" height="46.927" width="72.665" stroke-miterlimit="0" y="809.66" x="4.6838" stroke-width="0" fill="#f8c528"/>
   <rect id="rect6319-6" opacity="0.98" stroke-opacity="0" height="46.927" width="72.63" stroke-miterlimit="0" y="999.01" x="4.6838" fill="#f8e228"/>
   <rect id="rect6307-0" stroke-opacity="0" height="115.72" width="28.638" y="867.64" x="121.26" fill="#e1961d"/>
  </g>
  <path id="path4076-4" d="m-998.8 138a94.61 94.469 0 0 1 -23.6 -62.432" fill-opacity="0" transform="rotate(-90)" stroke="#f8e228" stroke-width="46.927"/>
  <path id="path4076" fill-opacity="0" transform="rotate(-90)" stroke="#f8c428" stroke-width="46.927" d="m-833.22 75.518a94.61 94.469 0 0 1 -62.25 88.772 94.61 94.469 0 0 1 -104.83 -28.05"/>
 </g>
</svg>
