<?xml version="1.0" encoding="UTF-8" standalone="no"?>
<!-- Created with Inkscape (http://www.inkscape.org/) -->
<svg id="svg4142" xmlns:rdf="http://www.w3.org/1999/02/22-rdf-syntax-ns#" xmlns="http://www.w3.org/2000/svg" height="10mm" width="60mm" version="1.1" xmlns:cc="http://creativecommons.org/ns#" xmlns:dc="http://purl.org/dc/elements/1.1/" viewBox="0 0 212.59842 35.433071">
 <metadata id="metadata4147">
  <rdf:RDF>
   <cc:Work rdf:about="">
    <dc:format>image/svg+xml</dc:format>
    <dc:type rdf:resource="http://purl.org/dc/dcmitype/StillImage"/>
    <dc:title/>
    <dc:publisher>
     <cc:Agent>
      <dc:title>Julien Reichardt</dc:title>
     </cc:Agent>
    </dc:publisher>
    <cc:license rdf:resource="http://creativecommons.org/licenses/by/3.0/"/>
   </cc:Work>
   <cc:License rdf:about="http://creativecommons.org/licenses/by/3.0/">
    <cc:permits rdf:resource="http://creativecommons.org/ns#Reproduction"/>
    <cc:permits rdf:resource="http://creativecommons.org/ns#Distribution"/>
    <cc:requires rdf:resource="http://creativecommons.org/ns#Notice"/>
    <cc:requires rdf:resource="http://creativecommons.org/ns#Attribution"/>
    <cc:permits rdf:resource="http://creativecommons.org/ns#DerivativeWorks"/>
   </cc:License>
  </rdf:RDF>
 </metadata>
 <g id="layer1" transform="translate(0 -1016.9)">
  <g>
   <g>
    <rect id="rect4731" rx="0" ry="4.0668" height="26.589" width="202.68" stroke="#1a7bb6" y="1021.6" x="4.3059" stroke-width="5.3176" fill="#1a7bb6"/>
    <path id="path6283" fill="#1a6a9e" stroke="#1a6a9e" stroke-width="5.9654" d="m26.569 1021.9a6.489 6.5236 0 0 1 5.6396 3.2434 6.489 6.5236 0 0 1 0.01629 6.5318 6.489 6.5236 0 0 1 -5.6233 3.2718"/>
    <rect id="rect6307" stroke-opacity="0" height="13.707" width="15.775" y="1018.9" x="10.926" fill="#1a6a9e"/>
   </g>
   <rect id="rect6319" stroke-opacity="0" height="14.37" width="9.8237" stroke-miterlimit="0" y="1018.9" x="1.4626" fill="#1a5c86"/>
   <path id="path4076" fill="#1a5c86" transform="rotate(-90)" stroke="#1a5c86" stroke-width="6.3402" d="m-1022.1 11.039a12.775 12.771 0 0 1 -6.4049 11.07 12.775 12.771 0 0 1 -12.792 -0.03042 12.775 12.771 0 0 1 -6.3522 -11.101"/>
   <path id="rect4799" d="m20.532 1046.6h-19.076v-27.786" stroke-opacity="0" fill="#1a5276"/>
   <rect id="rect6319-6" opacity="0.98" stroke-opacity="0" height="6.3363" width="9.819" stroke-miterlimit="0" y="1044.5" x="1.4626" fill="#1a5276"/>
  </g>
  <path id="path4076-4" d="m-1044.8 19.058a12.775 12.771 0 0 1 -2.8271 -8.0128" fill-opacity="0" transform="rotate(-90)" stroke="#1a5276" stroke-width="6.3402"/>
  <text id="text4175" style="word-spacing:0px;letter-spacing:0px" xml:space="preserve" font-size="180px" line-height="125%" y="543.79077" x="1011.4286" font-family="&apos;DejaVu Sans&apos;" fill="#ffffff"><tspan id="tspan4177" x="1011.4286" y="543.79077"/></text>
  <g font-family="sans-serif">
   <text id="text4179" style="word-spacing:0px;letter-spacing:0px" fill-opacity=".95686" xml:space="preserve" transform="scale(1.0006 .99938)" font-size="9.5103px" y="1040.3231" x="44.967079" line-height="125%" fill="#ffffff"><tspan id="tspan4181" font-weight="bold" fill-opacity=".95686" font-size="14.4px" y="1040.3231" x="44.967079" font-family="&apos;Nimbus Sans L&apos;" fill="#ffffff">DPlatform <tspan id="tspan4243" font-weight="bold" fill-opacity=".76863" font-size="14.4px" font-family="&apos;Nimbus Sans L&apos;" fill="#ffffff">deployment</tspan></tspan></text>
   <flowRoot id="flowRoot4235" font-size="180px" xml:space="preserve" style="word-spacing:0px;letter-spacing:0px" line-height="125%" fill="#000000"><flowRegion id="flowRegion4237"><rect id="rect4239" y="1749.5" width="537.14" x="3085.7" height="3348.6"/></flowRegion><flowPara id="flowPara4241"/></flowRoot>
   <text id="text4245" style="word-spacing:0px;letter-spacing:0px" xml:space="preserve" font-size="180px" y="1706.941" x="4266.8843" line-height="125%" fill="#000000"><tspan id="tspan4247" x="4266.8843" y="1706.941"/></text>
  </g>
 </g>
</svg>
