<?xml version="1.0" encoding="UTF-8" standalone="no"?>
<!-- Created with Inkscape (http://www.inkscape.org/) -->
<svg id="svg4142" xmlns:rdf="http://www.w3.org/1999/02/22-rdf-syntax-ns#" xmlns="http://www.w3.org/2000/svg" height="200mm" width="800mm" version="1.1" xmlns:cc="http://creativecommons.org/ns#" xmlns:dc="http://purl.org/dc/elements/1.1/" viewBox="0 0 2834.6456 708.66141">
 <metadata id="metadata4147">
  <rdf:RDF>
   <cc:Work rdf:about="">
    <dc:format>image/svg+xml</dc:format>
    <dc:type rdf:resource="http://purl.org/dc/dcmitype/StillImage"/>
    <dc:title/>
    <dc:publisher>
     <cc:Agent>
      <dc:title>Julien Reichardt</dc:title>
     </cc:Agent>
    </dc:publisher>
    <cc:license rdf:resource="http://creativecommons.org/licenses/by/3.0/"/>
   </cc:Work>
   <cc:License rdf:about="http://creativecommons.org/licenses/by/3.0/">
    <cc:permits rdf:resource="http://creativecommons.org/ns#Reproduction"/>
    <cc:permits rdf:resource="http://creativecommons.org/ns#Distribution"/>
    <cc:requires rdf:resource="http://creativecommons.org/ns#Notice"/>
    <cc:requires rdf:resource="http://creativecommons.org/ns#Attribution"/>
    <cc:permits rdf:resource="http://creativecommons.org/ns#DerivativeWorks"/>
   </cc:License>
  </rdf:RDF>
 </metadata>
 <g id="layer1" transform="translate(0 -343.7)">
  <g>
   <g>
    <rect id="rect4731" rx="0" ry="50.836" height="332.36" width="2533.5" stroke="#1a7bb6" y="559.77" x="108.19" stroke-width="66.47" fill="#1a7bb6"/>
    <path id="path6283" fill="#1a6a9e" stroke="#1a6a9e" stroke-width="74.568" d="m386.47 563.93a81.112 81.544 0 0 1 70.495 40.543 81.112 81.544 0 0 1 0.20366 81.647 81.112 81.544 0 0 1 -70.291 40.898"/>
    <rect id="rect6307" stroke-opacity="0" height="171.33" width="197.18" y="526.66" x="190.94" fill="#1a6a9e"/>
   </g>
   <rect id="rect6319" stroke-opacity="0" height="179.62" width="122.8" stroke-miterlimit="0" y="526.65" x="72.648" fill="#1a5c86"/>
   <path id="path4076" fill="#1a5c86" transform="rotate(-90)" stroke="#1a5c86" stroke-width="79.252" d="m-566.42 192.35a159.68 159.64 0 0 1 -80.061 138.38 159.68 159.64 0 0 1 -159.9 -0.38019 159.68 159.64 0 0 1 -79.402 -138.76"/>
   <path id="rect4799" d="m311.02 872.76h-238.45v-347.32" stroke-opacity="0" fill="#1a5276"/>
   <rect id="rect6319-6" opacity="0.98" stroke-opacity="0" height="79.203" width="122.74" stroke-miterlimit="0" y="846.23" x="72.648" fill="#1a5276"/>
  </g>
  <path id="path4076-4" d="m-850.38 292.59a159.68 159.64 0 0 1 -35.339 -100.16" fill-opacity="0" transform="rotate(-90)" stroke="#1a5276" stroke-width="79.252"/>
  <text id="text4175" style="word-spacing:0px;letter-spacing:0px" xml:space="preserve" font-size="180px" line-height="125%" y="543.79077" x="1011.4286" font-family="&apos;DejaVu Sans&apos;" fill="#ffffff"><tspan id="tspan4177" x="1011.4286" y="543.79077"/></text>
  <g font-family="sans-serif">
   <text id="text4179" style="word-spacing:0px;letter-spacing:0px" fill-opacity=".95686" xml:space="preserve" transform="scale(1.0006 .99938)" font-size="118.88px" y="786.51935" x="616.42035" line-height="125%" fill="#ffffff"><tspan id="tspan4181" font-weight="bold" fill-opacity=".95686" font-size="180px" y="786.51935" x="616.42035" font-family="&apos;Nimbus Sans L&apos;" fill="#ffffff">DPlatform <tspan id="tspan4243" font-weight="bold" fill-opacity=".76863" font-size="180px" font-family="&apos;Nimbus Sans L&apos;" fill="#ffffff">deployment</tspan></tspan></text>
   <flowRoot id="flowRoot4235" font-size="180px" xml:space="preserve" style="word-spacing:0px;letter-spacing:0px" line-height="125%" fill="#000000"><flowRegion id="flowRegion4237"><rect id="rect4239" y="1749.5" width="537.14" x="3085.7" height="3348.6"/></flowRegion><flowPara id="flowPara4241"/></flowRoot>
   <text id="text4245" style="word-spacing:0px;letter-spacing:0px" xml:space="preserve" font-size="180px" y="1706.941" x="4266.8843" line-height="125%" fill="#000000"><tspan id="tspan4247" x="4266.8843" y="1706.941"/></text>
  </g>
 </g>
</svg>
