<?xml version="1.0" encoding="UTF-8" standalone="no"?>
<!-- Created with Inkscape (http://www.inkscape.org/) -->
<svg id="svg5859" xmlns:rdf="http://www.w3.org/1999/02/22-rdf-syntax-ns#" xmlns="http://www.w3.org/2000/svg" height="297mm" width="210mm" version="1.1" xmlns:cc="http://creativecommons.org/ns#" xmlns:dc="http://purl.org/dc/elements/1.1/" viewBox="0 0 744.09448819 1052.3622047">
 <metadata id="metadata5864">
  <rdf:RDF>
   <cc:Work rdf:about="">
    <dc:format>image/svg+xml</dc:format>
    <dc:type rdf:resource="http://purl.org/dc/dcmitype/StillImage"/>
    <dc:title/>
   </cc:Work>
  </rdf:RDF>
 </metadata>
 <g id="layer1">
  <path id="path6283" fill-opacity="0" stroke="#f88b28" stroke-width="112.91" d="m536.14 281.04a122.74 123.55 0 0 1 106.67 61.426 122.74 123.55 0 0 1 0.30818 123.7 122.74 123.55 0 0 1 -106.37 61.964"/>
  <g>
   <rect id="rect6307" stroke-opacity="0" height="113.16" width="298.38" y="224.57" x="240.26" fill="#f88a28"/>
   <rect id="rect6307-0-6" stroke-opacity="0" height="373.21" width="120" y="340.54" x="61.252" fill="#f8e228"/>
   <rect id="rect6319" height="120" width="185.82" stroke-miterlimit="0" y="224.55" x="61.253" stroke-width="0" fill="#f8c528"/>
   <rect id="rect6319-6" opacity="0.98" stroke-opacity="0" height="120" width="185.73" stroke-miterlimit="0" y="708.75" x="61.253" fill="#f8e228"/>
   <rect id="rect6307-0" stroke-opacity="0" height="295.9" width="73.233" y="372.81" x="359.36" fill="#e1961d"/>
  </g>
  <path id="path4076-4" d="m-708.21 402.16a241.93 241.57 0 0 1 -60.36 -159.64" fill-opacity="0" transform="rotate(-90)" stroke="#f8e228" stroke-width="120"/>
  <path id="path4076" fill-opacity="0" transform="rotate(-90)" stroke="#f8c428" stroke-width="120" d="m-284.81 242.39a241.93 241.57 0 0 1 -159.19 227 241.93 241.57 0 0 1 -268.07 -71.72"/>
 </g>
</svg>
